<svg width="16" height="17" viewBox="0 0 16 17" fill="none" xmlns="http://www.w3.org/2000/svg">
<path d="M4.83301 5.16671H11.1663V3.83337C11.1663 2.50004 10.6663 1.83337 9.16634 1.83337H6.83301C5.33301 1.83337 4.83301 2.50004 4.83301 3.83337V5.16671Z" stroke="white" stroke-miterlimit="10" stroke-linecap="round" stroke-linejoin="round"/>
<path d="M10.6663 10.5V13.1667C10.6663 14.5 9.99967 15.1667 8.66634 15.1667H7.33301C5.99967 15.1667 5.33301 14.5 5.33301 13.1667V10.5H10.6663Z" stroke="white" stroke-miterlimit="10" stroke-linecap="round" stroke-linejoin="round"/>
<path d="M14 7.16663V10.5C14 11.8333 13.3333 12.5 12 12.5H10.6667V10.5H5.33333V12.5H4C2.66667 12.5 2 11.8333 2 10.5V7.16663C2 5.83329 2.66667 5.16663 4 5.16663H12C13.3333 5.16663 14 5.83329 14 7.16663Z" stroke="white" stroke-miterlimit="10" stroke-linecap="round" stroke-linejoin="round"/>
<path d="M11.3337 10.5H10.527H4.66699" stroke="white" stroke-miterlimit="10" stroke-linecap="round" stroke-linejoin="round"/>
<path d="M4.66699 7.83337H6.66699" stroke="white" stroke-miterlimit="10" stroke-linecap="round" stroke-linejoin="round"/>
</svg>
