<svg width="17" height="16" viewBox="0 0 17 16" fill="none" xmlns="http://www.w3.org/2000/svg">
<path d="M14.5 3.98665C12.28 3.76665 10.0467 3.65332 7.82 3.65332C6.5 3.65332 5.18 3.71999 3.86 3.85332L2.5 3.98665" stroke="#8F0A13" stroke-linecap="round" stroke-linejoin="round"/>
<path opacity="0.34" d="M6.16699 3.31325L6.31366 2.43992C6.42033 1.80659 6.50033 1.33325 7.62699 1.33325H9.37366C10.5003 1.33325 10.587 1.83325 10.687 2.44659L10.8337 3.31325" stroke="#8F0A13" stroke-linecap="round" stroke-linejoin="round"/>
<path d="M13.0669 6.09326L12.6336 12.8066C12.5603 13.8533 12.5003 14.6666 10.6403 14.6666H6.36026C4.50026 14.6666 4.44026 13.8533 4.36693 12.8066L3.93359 6.09326" stroke="#8F0A13" stroke-linecap="round" stroke-linejoin="round"/>
<path opacity="0.34" d="M7.38672 11H9.60672" stroke="#8F0A13" stroke-linecap="round" stroke-linejoin="round"/>
<path opacity="0.34" d="M6.83301 8.33325H10.1663" stroke="#8F0A13" stroke-linecap="round" stroke-linejoin="round"/>
</svg>
